<svg viewBox="0 0 569.19 180.69" version="1.1" xmlns="http://www.w3.org/2000/svg" id="Logo">
  
  <path d="M77.2,77.58l12.29,27.54,12.04-27.3c3.53-7.95,4.82-13,5.46-15.58h15.74v3.21c-5.06.48-6.42,2.49-6.42,6.26,0,.96.08,2.09.24,3.29l3.93,32.19c.56,4.74,2.49,7.55,8.51,8.19v3.13h-24.57v-3.13c4.9,0,7.3-2.65,7.3-6.91,0-.56-.08-1.12-.16-1.77l-3.69-33.16-12.92,30.19c-2.41,5.7-3.94,9.72-5.46,14.77h-3.29c-1.93-5.38-4.33-10.44-6.26-14.45l-14.69-30.43-4.5,29.79c-.24,1.53-.32,2.89-.32,4.09,0,5.38,2.41,7.55,7.71,7.87v3.13h-19.35v-3.13c4.9,0,6.99-2.49,7.87-8.35l4.65-30.59c.24-1.45.32-2.81.32-3.93,0-4.49-1.77-6.75-6.34-7.07v-3.21h16.22c1.13,4.17,3.13,9.63,5.7,15.34ZM159.5,118.44c-12.85-3.29-21.68-13.97-21.68-27.46,0-17.82,12.61-29.7,27.86-29.7,3.05,0,6.02.24,8.75.96,12.77,3.29,21.44,13.25,21.44,27.3,0,17.9-12.28,29.86-27.62,29.86-3.05,0-6.02-.24-8.75-.96ZM147.29,85.69c0,11.64,7.39,29.87,22.08,29.87,11.72,0,17.26-10.04,17.26-20.55,0-11.64-7.39-29.86-22.08-29.86-11.72,0-17.26,10.03-17.26,20.55ZM210.96,68.83c-2.65-2.57-4.5-3.05-7.62-3.37v-3.21h13.41l42.15,42.79v-27.05c0-6.42-1.53-12.52-9.79-12.52v-3.21h22.32v3.21c-6.18,0-8.83,5.14-8.83,12.52v24.73c0,6.99.08,10.52.56,16.54h-4.01c-2.57-3.45-4.98-5.86-6.82-7.79l-34.2-35.16v28.66c0,7.39,3.37,10.44,10.11,10.44v3.13h-23.6v-3.13c7.14,0,10.04-2.25,10.04-8.67v-34.28l-3.69-3.61ZM300.8,118.44c-12.84-3.29-21.68-13.97-21.68-27.46,0-17.82,12.61-29.7,27.86-29.7,3.05,0,6.02.24,8.75.96,12.77,3.29,21.44,13.25,21.44,27.3,0,17.9-12.28,29.86-27.62,29.86-3.05,0-6.02-.24-8.75-.96ZM288.59,85.69c0,11.64,7.39,29.87,22.08,29.87,11.72,0,17.26-10.04,17.26-20.55,0-11.64-7.39-29.86-22.08-29.86-11.72,0-17.26,10.03-17.26,20.55ZM398.58,76.22c-4.26-6.98-13.01-11.08-20.31-11.08-12.04,0-20.07,10.52-20.07,23.28s7.71,27.14,22.88,27.14c9.79,0,14.37-5.78,18.06-14.61h3.93l-3.29,14.37c-5.22,2.33-13.48,4.09-19.75,4.09-5.22,0-10.03-.64-14.77-2.65-9.56-4.01-16.78-12.53-16.78-25.05,0-18.63,14.05-30.43,32.12-30.43,4.25,0,12.04.64,17.02,1.93l3.61,12.69-2.65.32ZM412.9,65.46v-3.21h27.38v3.21c-7.63,0-9.4,3.21-9.4,7.95v30.75c0,7.55,2.81,10.84,11,10.84h1.34c7.22,0,11.96-2.81,16.13-10.2h3.45l-3.45,13.73h-46.45v-3.13c7.79-.48,9.4-2.25,9.4-9.4v-32.28c0-5.54-1.93-8.27-9.4-8.27ZM468.67,118.53v-3.13c6.35,0,8.83-2.41,8.83-8.35v-33.16c0-5.46-2.17-8.43-8.83-8.43v-3.21h47.24v12.61h-2.97c-2.89-7.47-6.34-8.99-13.25-8.99h-13.52v22.64h7.95c7.79,0,10.23-1.28,10.63-7.14h3.29v17.98h-3.29c-.96-6.18-3.32-7.23-10.47-7.23h-8.11v12.52c0,7.95,2.25,10.36,9.63,10.36h3.64c9.23,0,13.25-2.41,17.18-10.2h3.77l-3.77,13.73h-47.96Z"></path>
</svg>