<svg width="16" height="16" viewBox="0 0 16 16" fill="none" xmlns="http://www.w3.org/2000/svg">
<path fill-rule="evenodd" clip-rule="evenodd" d="M4.00647 4.07866C4.00647 1.82608 5.79443 0 7.99998 0C10.2055 0 11.9935 1.82608 11.9935 4.07866C11.9935 6.33124 10.2055 8.15732 7.99998 8.15732C5.79443 8.15732 4.00647 6.33124 4.00647 4.07866ZM7.99998 1.39271C6.54754 1.39271 5.37011 2.59525 5.37011 4.07866C5.37011 5.56207 6.54754 6.76461 7.99998 6.76461C9.45242 6.76461 10.6299 5.56207 10.6299 4.07866C10.6299 2.59525 9.45242 1.39271 7.99998 1.39271ZM4.63306 9.96712C5.84658 9.72964 7.15748 9.65182 8 9.65182C8.84252 9.65182 10.1534 9.72964 11.3669 9.96712C11.973 10.0857 12.5786 10.2486 13.0974 10.474C13.5997 10.6922 14.1092 11.0063 14.414 11.4801C14.8736 12.1947 15.1389 13.0949 15.2922 13.8849C15.4473 14.6842 15.5 15.4363 15.5 15.9005V16H14.1364V15.9005C14.1364 15.5235 14.0917 14.8622 13.9546 14.1557C13.8156 13.4398 13.5939 12.7417 13.2743 12.2448C13.1895 12.1129 12.9766 11.9349 12.5637 11.7556C12.1673 11.5834 11.665 11.4435 11.1103 11.3349C10.0024 11.1181 8.78086 11.0445 8 11.0445C7.21914 11.0445 5.99758 11.1181 4.88967 11.3349C4.335 11.4435 3.83267 11.5834 3.43627 11.7556C3.0234 11.9349 2.81052 12.1129 2.7257 12.2448C2.4061 12.7417 2.18435 13.4398 2.04543 14.1557C1.90833 14.8622 1.86364 15.5235 1.86364 15.9005V16H0.5V15.9005C0.5 15.4363 0.55271 14.6842 0.707813 13.8849C0.861107 13.0949 1.12638 12.1947 1.58599 11.4801C1.89076 11.0063 2.40026 10.6922 2.90261 10.474C3.42138 10.2486 4.027 10.0857 4.63306 9.96712Z" fill="black"/>
</svg>
