<svg width="18" height="19" viewBox="0 0 18 19" fill="none" xmlns="http://www.w3.org/2000/svg">
<g clip-path="url(#clip0_7652_13296)">
<g clip-path="url(#clip1_7652_13296)">
<path d="M0.5625 17.9375L12.2659 1.97825C12.6877 1.40337 13.3582 1.0625 14.0726 1.0625C15.3101 1.0625 16.3125 2.06488 16.3125 3.30237V3.407C16.3125 4.06062 16.0267 4.68162 15.5306 5.108L0.5625 17.9375Z" fill="black"/>
<path d="M0.562694 18.5C0.425444 18.5 0.288194 18.4494 0.180194 18.3504C-0.0290562 18.1558 -0.0605562 17.8351 0.109319 17.6056L11.8127 1.64525C12.3381 0.928625 13.1829 0.5 14.0728 0.5C15.6186 0.5 16.8752 1.75662 16.8752 3.30237V3.407C16.8752 4.226 16.5186 5.00112 15.8964 5.53437L0.928319 18.365C0.822569 18.455 0.692069 18.5 0.562694 18.5ZM14.0728 1.625C13.5407 1.625 13.0344 1.8815 12.7206 2.31012L3.90394 14.333L15.1652 4.6805C15.5376 4.361 15.7513 3.8975 15.7513 3.407V3.30237C15.7513 2.37762 14.9987 1.625 14.0739 1.625H14.0728Z" fill="black"/>
<path d="M13.875 4.25C14.4963 4.25 15 3.74632 15 3.125C15 2.50368 14.4963 2 13.875 2C13.2537 2 12.75 2.50368 12.75 3.125C12.75 3.74632 13.2537 4.25 13.875 4.25Z" fill="white"/>
<path d="M17.3675 6.48275C17.1031 6.48275 16.8668 6.29488 16.8162 6.026C16.6171 4.9865 15.7891 3.875 14.0645 3.875C13.754 3.875 13.502 3.623 13.502 3.3125C13.502 3.002 13.754 2.75 14.0645 2.75C16.0501 2.75 17.5643 3.95262 17.921 5.81337C17.9795 6.11825 17.7792 6.413 17.4743 6.4715C17.4383 6.47825 17.4023 6.48162 17.3675 6.48162V6.48275Z" fill="black"/>
<path d="M5.5125 11.75H3.84862C1.72575 11.75 0 10.0242 0 7.90136C0 5.77849 1.72575 4.05386 3.84862 4.05386H10.125C10.4355 4.05386 10.6875 4.30586 10.6875 4.61636C10.6875 4.92686 10.4355 5.17886 10.125 5.17886H3.84862C2.34675 5.17886 1.125 6.40061 1.125 7.90249C1.125 9.40436 2.34675 10.6261 3.84862 10.6261H5.5125C5.823 10.6261 6.075 10.8781 6.075 11.1886C6.075 11.4991 5.823 11.7511 5.5125 11.7511V11.75Z" fill="black"/>
<path d="M10.9688 11.75H10.6875C10.377 11.75 10.125 11.498 10.125 11.1875C10.125 10.877 10.377 10.625 10.6875 10.625H10.9688C11.2793 10.625 11.5312 10.877 11.5312 11.1875C11.5312 11.498 11.2793 11.75 10.9688 11.75Z" fill="black"/>
<path d="M13.9286 18.5H13.3886C13.0781 18.5 12.8261 18.248 12.8261 17.9375C12.8261 17.627 13.0781 17.375 13.3886 17.375H13.9286C14.2391 17.375 14.4911 17.627 14.4911 17.9375C14.4911 18.248 14.2391 18.5 13.9286 18.5ZM11.8744 18.5H11.3344C11.0239 18.5 10.7719 18.248 10.7719 17.9375C10.7719 17.627 11.0239 17.375 11.3344 17.375H11.8744C12.1849 17.375 12.4369 17.627 12.4369 17.9375C12.4369 18.248 12.1849 18.5 11.8744 18.5ZM9.82125 18.5H9.28125C8.97075 18.5 8.71875 18.248 8.71875 17.9375C8.71875 17.627 8.97075 17.375 9.28125 17.375H9.82125C10.1318 17.375 10.3838 17.627 10.3838 17.9375C10.3838 18.248 10.1318 18.5 9.82125 18.5ZM15.4035 18.2232C15.1864 18.2232 14.9794 18.0961 14.8871 17.8846C14.7634 17.6 14.895 17.2681 15.1796 17.1444C15.3169 17.0847 15.4508 17.0139 15.5768 16.9329C15.8389 16.7653 16.1865 16.8417 16.3541 17.1039C16.5217 17.366 16.4453 17.7136 16.1831 17.8812C16.0065 17.9937 15.8198 18.0939 15.6274 18.1771C15.5543 18.2086 15.4789 18.2232 15.4035 18.2232ZM16.9324 16.9014C16.8311 16.9014 16.7288 16.8744 16.6365 16.817C16.3721 16.6527 16.2911 16.3063 16.4554 16.043C16.5341 15.9159 16.6039 15.7809 16.6613 15.6436C16.7805 15.3567 17.1101 15.2206 17.397 15.341C17.6839 15.4602 17.82 15.7899 17.6996 16.0768C17.6186 16.2703 17.5219 16.4592 17.4116 16.637C17.3048 16.8091 17.1214 16.9036 16.9335 16.9036L16.9324 16.9014ZM17.433 14.9427C17.136 14.9427 16.8885 14.711 16.8716 14.4106C16.8637 14.2599 16.8435 14.1102 16.812 13.964C16.7467 13.6602 16.9391 13.361 17.2429 13.2957C17.5466 13.2294 17.8459 13.4229 17.9111 13.7266C17.955 13.9302 17.9831 14.1395 17.9944 14.3499C18.0112 14.6604 17.7727 14.9247 17.4634 14.9416C17.4532 14.9416 17.4431 14.9416 17.433 14.9416V14.9427ZM16.7254 13.0494C16.5577 13.0494 16.3924 12.9751 16.281 12.8334C16.1887 12.7152 16.0864 12.6039 15.9761 12.5015C15.7489 12.29 15.7354 11.9345 15.9469 11.7061C16.1584 11.4789 16.5139 11.4654 16.7423 11.6769C16.8964 11.8197 17.0393 11.9761 17.1675 12.1404C17.3588 12.3856 17.3149 12.7389 17.0696 12.9301C16.9672 13.01 16.8446 13.0494 16.7242 13.0494H16.7254ZM15.0615 11.8996C15.0064 11.8996 14.9501 11.8917 14.895 11.8749C14.7521 11.831 14.6047 11.7984 14.4562 11.777C14.1491 11.7342 13.9342 11.4496 13.977 11.1414C14.0197 10.8342 14.3032 10.6205 14.6126 10.6621C14.8196 10.6914 15.0266 10.7375 15.2269 10.7994C15.5239 10.8905 15.6904 11.2055 15.5981 11.5025C15.5239 11.7444 15.3011 11.8996 15.0604 11.8996H15.0615ZM13.023 11.75H12.483C12.1725 11.75 11.9205 11.498 11.9205 11.1875C11.9205 10.877 12.1725 10.625 12.483 10.625H13.023C13.3335 10.625 13.5855 10.877 13.5855 11.1875C13.5855 11.498 13.3335 11.75 13.023 11.75Z" fill="black"/>
<path d="M7.75977 18.5H7.47852C7.16802 18.5 6.91602 18.248 6.91602 17.9375C6.91602 17.627 7.16802 17.375 7.47852 17.375H7.75977C8.07027 17.375 8.32227 17.627 8.32227 17.9375C8.32227 18.248 8.07027 18.5 7.75977 18.5Z" fill="black"/>
</g>
</g>
<defs>
<clipPath id="clip0_7652_13296">
<rect width="18" height="18" fill="white" transform="translate(0 0.5)"/>
</clipPath>
<clipPath id="clip1_7652_13296">
<rect width="17.9955" height="18" fill="white" transform="translate(0 0.5)"/>
</clipPath>
</defs>
</svg>