<svg width="24" height="25" viewBox="0 0 24 25" fill="none" xmlns="http://www.w3.org/2000/svg">
<path d="M21.3546 3.56018L23.6746 11.1705C23.6901 11.2287 23.6455 11.2869 23.5853 11.2869H0.903937C0.843754 11.2869 0.799102 11.2287 0.814633 11.1705L3.1346 3.56018C3.14819 3.5233 3.18508 3.5 3.22197 3.5H21.2673C21.3041 3.5 21.341 3.52524 21.3546 3.56018ZM21.7584 16.9092C22.0768 14.7174 18.394 13.3274 11.1312 13.3274H2.33475C2.28233 13.3274 2.2435 13.3856 2.25709 13.4438L3.33068 21.4346C3.34039 21.4754 3.37145 21.5026 3.40834 21.5026H21.0789C21.1158 21.5026 21.1469 21.4754 21.1566 21.4346C21.1566 21.4346 21.7487 16.9791 21.7584 16.9112V16.9092Z" fill="black"/>
</svg>
