<svg width="40" height="40" viewBox="0 0 40 40" fill="none" xmlns="http://www.w3.org/2000/svg">
<path d="M30.9223 0.0717117L32.2056 4.88017C32.2206 4.94056 32.1754 5.00094 32.1112 5.00094H8.43126C8.3671 5.00094 8.3218 4.94056 8.3369 4.88017L9.62016 0.0717117C9.63149 0.0301944 9.66923 0 9.71452 0H30.8317C30.877 0 30.9147 0.0301944 30.9261 0.0717117H30.9223ZM15.8138 8.3412H10.107C10.0504 8.3412 10.0051 8.39026 10.0127 8.44688L13.1906 39.9094C13.1944 39.9585 13.2359 39.9962 13.285 39.9962H27.2575C27.3065 39.9962 27.348 39.9585 27.3518 39.9094L30.0731 12.9609C30.0731 12.9609 26.7592 8.33742 15.81 8.33742L15.8138 8.3412Z" fill="white"/>
</svg>
