<svg width="24" height="25" viewBox="0 0 24 25" fill="none" xmlns="http://www.w3.org/2000/svg">
<g clip-path="url(#clip0_1131_19683)">
<path d="M18.5535 0.543027L19.3234 3.4281C19.3325 3.46433 19.3053 3.50057 19.2668 3.50057H5.05885C5.02036 3.50057 4.99318 3.46433 5.00224 3.4281L5.7722 0.543027C5.77899 0.518117 5.80163 0.5 5.82881 0.5H18.4991C18.5263 0.5 18.5489 0.518117 18.5557 0.543027H18.5535ZM9.48837 5.50472H6.06433C6.03036 5.50472 6.00318 5.53416 6.00771 5.56813L7.91449 24.4457C7.91675 24.4751 7.94166 24.4977 7.9711 24.4977H16.3546C16.384 24.4977 16.4089 24.4751 16.4112 24.4457L18.0439 8.27656C18.0439 8.27656 16.0556 5.50245 9.4861 5.50245L9.48837 5.50472Z" fill="black"/>
</g>
<defs>
<clipPath id="clip0_1131_19683">
<rect width="24" height="24" fill="white" transform="translate(0 0.5)"/>
</clipPath>
</defs>
</svg>
