<svg width="24" height="25" viewBox="0 0 24 25" fill="none" xmlns="http://www.w3.org/2000/svg">
<path d="M21.5256 16.9723L20.5122 22.8194L4.7776 22.8039L2.853 11.8674L10.6248 11.8741C18.0809 11.9496 22.1146 13.3897 21.5745 16.5033C21.5412 16.6967 21.5256 16.85 21.5234 16.9723H21.5256ZM23.9236 8.83826C23.9236 9.34275 23.5147 9.74944 23.0124 9.74944H1.9107C1.40621 9.74944 0.999512 9.34052 0.999512 8.83826C0.999512 8.336 1.40843 7.92707 1.9107 7.92707H2.64409C3.11746 5.09351 5.48433 2.86443 8.34234 2.54218C9.91803 2.36439 11.3937 2.75998 12.6027 3.5356C14.2962 2.59997 15.4829 2.51107 15.4829 2.51107C15.7074 2.49774 15.9119 2.49551 16.1185 2.50663C19.1677 2.6822 21.759 4.95349 22.2724 7.92485H23.0102C23.5147 7.92485 23.9214 8.33377 23.9214 8.83604L23.9236 8.83826ZM17.9854 7.92485C17.3209 5.4002 15.1318 4.42901 13.4894 4.04898C13.4228 4.03342 13.385 4.11565 13.4361 4.16232C14.514 5.12462 15.2607 6.44251 15.5163 7.92485H17.9854Z" fill="black"/>
</svg>
