<svg width="24" height="25" viewBox="0 0 24 25" fill="none" xmlns="http://www.w3.org/2000/svg">
<g clip-path="url(#clip0_1131_19701)">
<path d="M20.7307 5.23058H18.3283C18.3283 7.51861 16.4636 8.81396 16.4636 8.81396L16.4192 8.89227V4.76069C16.4086 2.40916 14.4931 0.5 12.1394 0.5C9.78578 0.5 7.85969 2.41975 7.85969 4.77974V5.23058H3.55243L3 24.5H21.2831L20.7307 5.23058ZM14.5015 5.23058H11.6907C11.6907 7.33023 9.826 8.81396 9.826 8.81396L9.78367 8.89227V4.78186C9.78367 3.48016 10.842 2.42186 12.1437 2.42186C13.4454 2.42186 14.5037 3.48016 14.5037 4.78186V5.23269L14.5015 5.23058Z" fill="black"/>
</g>
<defs>
<clipPath id="clip0_1131_19701">
<rect width="24" height="24" fill="white" transform="translate(0 0.5)"/>
</clipPath>
</defs>
</svg>
