<svg width="16" height="16" viewBox="0 0 16 16" fill="none" xmlns="http://www.w3.org/2000/svg">
<path fill-rule="evenodd" clip-rule="evenodd" d="M0.459961 6.67696C0.459961 3.26 3.22996 0.490005 6.64692 0.490005C10.0639 0.490005 12.8339 3.26 12.8339 6.67696C12.8339 8.10036 12.3531 9.41173 11.5451 10.4572L15.5383 14.4504L14.4746 15.5141L10.488 11.5275C9.4328 12.3642 8.09809 12.8639 6.64692 12.8639C3.22996 12.8639 0.459961 10.0939 0.459961 6.67696ZM6.64692 1.99435C4.06078 1.99435 1.96431 4.09083 1.96431 6.67696C1.96431 9.26309 4.06078 11.3596 6.64692 11.3596C9.23305 11.3596 11.3295 9.26309 11.3295 6.67696C11.3295 4.09083 9.23305 1.99435 6.64692 1.99435Z" fill="black"/>
</svg>
