<svg width="24" height="25" viewBox="0 0 24 25" fill="none" xmlns="http://www.w3.org/2000/svg">
<g clip-path="url(#clip0_1131_19707)">
<path d="M18.1969 13.3816L17.454 15.9596L19.5198 17.6719L17.4032 19.3186L18.0678 21.9178L15.3861 22.0045L14.3977 24.5L12.1774 22.993L9.91049 24.4323L9.00035 21.9093L6.32287 21.74L7.06579 19.162L5 17.4496L7.11659 15.8008L6.45198 13.2017L7.6034 13.1636C8.74425 14.4695 10.41 15.3098 12.2811 15.3394C14.1521 15.3669 15.8433 14.5774 17.0243 13.3075L18.1969 13.3816ZM12.5075 0.500006C9.00247 0.447091 6.11756 3.24522 6.06464 6.75029C6.01173 10.2554 8.80986 13.1403 12.3128 13.1932C15.8179 13.2461 18.7028 10.448 18.7557 6.94502C18.8086 3.43783 16.0105 0.555037 12.5075 0.500006Z" fill="black"/>
</g>
<defs>
<clipPath id="clip0_1131_19707">
<rect width="24" height="24" fill="white" transform="translate(0 0.5)"/>
</clipPath>
</defs>
</svg>
