<svg width="156" height="24" viewBox="0 0 156 24" fill="none" xmlns="http://www.w3.org/2000/svg">
<g clip-path="url(#clip0_1342_7803)">
<g clip-path="url(#clip1_1342_7803)">
<path fill-rule="evenodd" clip-rule="evenodd" d="M8.31304 0H0V23.8477H8.38783C10.8775 23.8477 12.4973 23.3782 13.2773 22.4264C14.0403 21.4873 14.4228 19.6429 14.4228 16.906C14.4228 14.8649 14.1792 13.3991 13.6898 12.5214C13.1855 11.6605 12.4375 11.2058 11.4139 11.191V10.6918C12.4973 10.5543 13.2303 10.0256 13.5979 9.11818C13.9655 8.48365 14.1493 7.37957 14.1642 5.80594V5.57962C14.1642 3.65912 13.7838 2.23777 13.0038 1.3452C12.2238 0.454746 10.6659 0 8.31304 0ZM8.90713 6.50392C8.90713 8.12197 8.7554 8.84745 8.14421 8.84745H8.14207H5.34684V4.32537H8.18909C8.78532 4.32537 8.90713 4.88587 8.90713 6.50392ZM8.87721 18.8286C8.78532 19.2516 8.57162 19.4631 8.25106 19.4631H8.24892H5.34684V13.0967H8.17413C8.89217 13.0967 9.01398 14.0654 9.01398 16.4237C9.01398 17.6188 8.9691 18.4204 8.87721 18.8286ZM24.7553 0H15.9871V23.8477H21.4258V16.9208H23.4581V18.947L24.9241 23.8477H30.3949L28.1639 14.3953L26.1615 14.8501L26.0846 14.5032C27.5805 14.2769 28.6191 13.6572 29.1854 12.6737C29.9184 11.3877 30.2859 9.72521 30.2859 7.65242C30.2859 5.36811 29.9355 3.52375 29.2174 2.11721C28.4994 0.710672 27.0163 0 24.7553 0ZM24.6186 10.1017C24.4348 10.7828 24.174 11.1296 23.8236 11.1296H21.3938V3.91716H23.8236C24.1762 3.91716 24.4348 4.29365 24.6186 5.05085C24.7874 5.82286 24.8793 6.74504 24.8793 7.68203C24.8793 8.61902 24.7874 9.42064 24.6186 10.1017ZM43.5013 0H34.9596L31.2497 23.8477H36.7804L37.4364 18.7355H40.9048L41.5459 23.8477H47.0766L43.5013 0ZM40.2466 14.5624H38.1224L38.1246 14.5603L38.8875 5.42734C38.9794 4.95779 39.0242 4.32326 39.0093 3.8389L38.9943 3.29532H39.4068L39.3918 3.82409C39.3918 4.32326 39.4367 4.95779 39.5286 5.41253L40.2466 14.5624ZM48.3438 23.8477H53.7078V12.1872C53.7078 11.9143 53.6907 11.5675 53.6458 11.3094L53.1414 4.09694H53.5539L56.9154 23.8477H66.5876V0H61.2087V11.4321C61.2087 11.7049 61.2237 12.0666 61.2536 12.3247L61.728 19.2812H61.3305L58.1229 0H48.3438V23.8477ZM76.871 0H68.7268H68.7246V23.8477H76.8689C79.3307 23.8477 81.0104 23.0017 81.9272 21.2927C82.829 19.5985 83.2864 16.4533 83.2864 11.9165C83.2864 7.37957 82.829 4.26403 81.9272 2.55504C81.0104 0.846039 79.3307 0 76.871 0ZM77.5121 18.6763C77.2364 19.2051 76.809 19.4631 76.2128 19.4631V19.461H74.1035V4.38459H76.2128C76.809 4.38459 77.2364 4.65744 77.5121 5.18622C77.7878 5.71711 77.9246 7.92315 77.9246 11.9165C77.9246 15.9098 77.7878 18.1623 77.5121 18.6763ZM104.481 0H98.7969L96.6855 8.48365C96.5487 8.70997 96.4419 9.02723 96.4419 9.30008L96.4269 10.4486H96.0145L95.9995 9.30008C95.9995 9.02723 95.8927 8.70997 95.7559 8.48365L93.6167 0H87.9323L93.512 15.804V23.8498H98.9358V15.804L104.481 0ZM120.409 0V16.8912H120.407C120.407 21.4873 122.65 23.9683 127.786 23.9683C132.921 23.9683 135.182 21.4894 135.182 16.8912V0H129.788V16.7114C129.788 17.9381 129.651 18.708 129.361 18.9957C129.072 19.2833 128.536 19.4335 127.788 19.4335C127.04 19.4335 126.535 19.2833 126.245 18.9957C125.954 18.708 125.802 17.936 125.802 16.7114V0H120.409ZM145.7 0H136.932V23.8477H142.371V16.9208H144.403V18.947L145.869 23.8477H151.34L149.109 14.3953L147.107 14.8501L147.03 14.5032C148.526 14.2769 149.564 13.6572 150.13 12.6737C150.863 11.3877 151.231 9.72521 151.231 7.65242C151.231 5.36811 150.881 3.52375 150.162 2.11721C149.444 0.710672 147.961 0 145.7 0ZM145.564 10.1017C145.38 10.7828 145.119 11.1296 144.769 11.1296H142.339V3.91716H144.769C145.121 3.91716 145.38 4.29365 145.564 5.05085C145.732 5.82286 145.824 6.74504 145.824 7.68203C145.824 8.61902 145.732 9.42064 145.564 10.1017ZM152.419 2.30545H152.943V0.638759C152.943 0.577421 152.902 0.537234 152.84 0.537234H152.795V0.497048H153.321V0H152.043V0.497048H152.419V2.30545ZM153.503 2.30545H154.02V1.6117C154.02 1.58632 154.016 1.55248 154.009 1.5271L153.902 0.427249H153.943L154.212 2.30545H154.813L155.082 0.427249H155.123L155.014 1.52498C155.007 1.55037 155.005 1.58632 155.005 1.6117V2.30545H155.522V0H154.704L154.548 0.968714C154.541 0.994095 154.537 1.02794 154.537 1.05332V1.67727H154.496V1.05332C154.496 1.02794 154.492 0.994095 154.486 0.968714L154.325 0H153.503V2.30545Z" fill="black"/>
<path d="M116.898 2.11765C115.606 0.714186 113.738 0 111.279 0C108.819 0 106.952 0.714186 105.676 2.11765C104.384 3.53772 103.75 6.8346 103.75 12.0083C103.75 17.182 104.384 20.4789 105.676 21.8824C106.952 23.2858 108.819 24 111.279 24C113.738 24 115.606 23.2858 116.898 21.8824C118.191 20.4789 118.824 17.182 118.824 12.0083C118.824 6.8346 118.191 3.53772 116.898 2.11765ZM111.512 18.4443C111.371 18.3529 111.187 18.3529 111.045 18.4443C110.679 18.6768 110.02 18.5356 110.02 18.0042C110.02 17.2734 110.612 16.7668 110.612 16.4678C110.612 16.2436 110.62 15.3716 110.62 14.0927C110.62 14.0927 111.929 13.9599 111.929 15.355C111.929 15.7869 111.938 16.3349 111.938 16.4678C111.938 16.7668 112.529 17.2651 112.529 18.0042C112.529 18.5356 111.871 18.6768 111.504 18.4443H111.512ZM114.114 8.79446C114.005 10.8789 112.746 13.1875 111.287 13.1875C109.828 13.1875 108.569 10.8789 108.461 8.79446C108.344 6.53564 109.094 5.29827 111.287 5.29827C113.48 5.29827 114.222 6.53564 114.114 8.79446Z" fill="black"/>
</g>
</g>
<defs>
<clipPath id="clip0_1342_7803">
<rect width="155.52" height="24" fill="white"/>
</clipPath>
<clipPath id="clip1_1342_7803">
<rect width="155.52" height="24" fill="white"/>
</clipPath>
</defs>
</svg>
